<?xml version="1.0" encoding="UTF-8" standalone="no"?><!DOCTYPE svg PUBLIC "-//W3C//DTD SVG 1.1//EN" "http://www.w3.org/Graphics/SVG/1.1/DTD/svg11.dtd"><svg width="100%" height="100%" viewBox="0 0 1440 124" version="1.1" xmlns="http://www.w3.org/2000/svg" xmlns:xlink="http://www.w3.org/1999/xlink" xml:space="preserve" xmlns:serif="http://www.serif.com/" style="fill-rule:evenodd;clip-rule:evenodd;stroke-linejoin:round;stroke-miterlimit:1.41421;"><path d="M0,60.485l0,-60.485l1440,0l0,123.884c0,0 -212.996,-69.876 -604.512,-27.099c-391.516,42.777 -835.488,-36.3 -835.488,-36.3Z" style="fill:url(#_Linear1);fill-rule:nonzero;"/><path d="M1440,0l0,99.134c0,0 -459.904,-75.722 -835.953,-25.974c-329.418,43.578 -553.607,35.192 -604.036,32.984l-0.002,-106.144l1439.99,0Z" style="fill:url(#_Linear2);fill-rule:nonzero;"/><path d="M1440,111.865c-120.905,3.541 -274.678,1.125 -471.556,-16.105c-511.368,-44.743 -968.444,-28.822 -968.444,-28.822l0,-66.938l1440,0l0,111.865Z" style="fill:url(#_Linear3);fill-rule:nonzero;"/><path d="M1440,0l0,85.151c0,0 -221.92,58.434 -731.971,13.619c-441.704,-38.81 -657.774,-42.626 -708.029,-42.953l0.01,-55.817l1439.99,0Z" style="fill:url(#_Linear4);fill-rule:nonzero;"/><defs><linearGradient id="_Linear1" x1="0" y1="0" x2="1" y2="0" gradientUnits="userSpaceOnUse" gradientTransform="matrix(4.63804e-14,757.449,-757.449,4.63804e-14,720,-633.565)"><stop offset="0" style="stop-color:#1821a4;stop-opacity:0.14"/><stop offset="1" style="stop-color:#2748b4;stop-opacity:0.14"/></linearGradient><linearGradient id="_Linear2" x1="0" y1="0" x2="1" y2="0" gradientUnits="userSpaceOnUse" gradientTransform="matrix(4.46465e-14,729.133,-729.133,4.46465e-14,720,-620.874)"><stop offset="0" style="stop-color:#1863a4;stop-opacity:0.28"/><stop offset="1" style="stop-color:#2748b4;stop-opacity:0.28"/></linearGradient><linearGradient id="_Linear3" x1="0" y1="0" x2="1" y2="0" gradientUnits="userSpaceOnUse" gradientTransform="matrix(-1186.56,1.45312e-13,-1.45312e-13,-1186.56,1440,47.9113)"><stop offset="0" style="stop-color:#2748b4;stop-opacity:0.7"/><stop offset="1" style="stop-color:#1842a4;stop-opacity:0.7"/></linearGradient><linearGradient id="_Linear4" x1="0" y1="0" x2="1" y2="0" gradientUnits="userSpaceOnUse" gradientTransform="matrix(-1440,1.76349e-13,-1.76349e-13,-1440,1440,-160.196)"><stop offset="0" style="stop-color:#2789b4;stop-opacity:0.7"/><stop offset="1" style="stop-color:#1842a4;stop-opacity:0.7"/></linearGradient></defs></svg>