<svg xmlns="http://www.w3.org/2000/svg" xmlns:xlink="http://www.w3.org/1999/xlink" viewBox="0 0 1920 605.178"><defs><style>.a{opacity:0.2;fill:url(#a);}.b{opacity:0.4;fill:url(#b);}.c,.d{opacity:0.7;}.c{fill:url(#c);}.d{fill:url(#d);}</style><linearGradient id="a" x1="0.5" x2="0.5" y2="1" gradientUnits="objectBoundingBox"><stop offset="0" stop-color="#1821a4"/><stop offset="1" stop-color="#2748b4"/></linearGradient><linearGradient id="b" x1="0.5" x2="0.5" y2="1" gradientUnits="objectBoundingBox"><stop offset="0" stop-color="#1863a4"/><stop offset="1" stop-color="#2748b4"/></linearGradient><linearGradient id="c" x1="1" y1="0.423" x2="0.176" y2="0.423" gradientUnits="objectBoundingBox"><stop offset="0" stop-color="#2748b4"/><stop offset="1" stop-color="#1842a4"/></linearGradient><linearGradient id="d" x1="1" y1="0.381" x2="0" y2="0.381" gradientUnits="objectBoundingBox"><stop offset="0" stop-color="#2789b4"/><stop offset="1" stop-color="#1842a4"/></linearGradient></defs><g transform="translate(-262.336 -439.755)"><path class="a" d="M2161.594,489.286s-591.963-105.436-1113.984-48.4-806.016-36.131-806.016-36.131v605.177h1920Z" transform="translate(20.742 35)"/><path class="b" d="M2161.58,390.654c-67.238-2.944-366.157-14.125-805.381,43.979C854.8,500.963,241.595,400,241.595,400V972.177h1920Z" transform="translate(20.741 72.754)"/><path class="c" d="M496.026,382.658c161.207-4.722,366.237-1.5,628.742,21.473,681.823,59.657,1291.258,38.43,1291.258,38.43v529.25l-1920,0Z" transform="translate(-233.69 73.122)"/><path class="d" d="M221.861,450.807s295.893-77.911,975.962-18.158c588.938,51.746,877.032,56.834,944.038,57.27l-.09,514.423-1919.91,0Z" transform="translate(40.475 40.591)"/></g></svg>