<svg xmlns="http://www.w3.org/2000/svg" width="248.224" height="104.011" viewBox="0 0 248.224 104.011"><path d="M-623.275-496h-25.031v-43.974h25.727a26.777,26.777,0,0,1,9.039,1.4,22.572,22.572,0,0,1,6.953,4.188c1.833,1.578,2.953,3.593,4.172,6.282a25.207,25.207,0,0,1,2.086,10.471,29.875,29.875,0,0,1-2.086,9.772c-1.108,2.791-2.338,5.362-4.172,6.98a19.988,19.988,0,0,1-6.953,3.49,27.606,27.606,0,0,1-9.006,1.4Q-622.906-495.99-623.275-496ZM-633.7-507.165h8.344c1.873,0,3.023.1,4.172-.7a11.019,11.019,0,0,0,2.781-3.49c.725-1.244,1.19-3.047,1.391-6.282-.06-2.953.06-5.575-.695-6.98s-2.288-1.993-3.477-2.792a6.679,6.679,0,0,0-4.172-1.4H-633.7ZM-503.928-496l-12.992-16.38V-496h-14.2v-43.8h14.2l12.992,16.38V-539.8h21.382v13.044h-7.18V-496Zm-44.254,0v-43.974h13.906V-496Zm-17.383,0v-18.148L-574.6-496h-.7l-9.039-18.148V-496h-13.906v-43.974h13.906l9.734,18.148,9.039-18.148h14.6V-496Zm-98.734,0-2.781-7.678H-680.29L-683.071-496h-15.3l9.734-30.712h-13.211v-13.262h38.938l14.6,43.974Zm-15.3-16.752h11.821l-5.563-17.45Zm172.272-43.276V-600h36.851v13.262h-22.945v4.886h15.3v7.678h-15.3v4.886h23.64v13.262Zm-18.077,0-13.211-14.658v14.658H-554.6V-600H-526.1a16.909,16.909,0,0,1,8.344,2.792,13.465,13.465,0,0,1,4.867,6.283c.806,3.883.724,6.97,0,9.074a11.448,11.448,0,0,1-3.477,5.584c-1.813,1.416-4.264,1.984-7.648,2.793l2.781,4.188h13.906v13.262Zm-13.211-25.129h10.429c.584,0,1.4.436,2.086,0a4.371,4.371,0,0,0,1.391-3.489,4.8,4.8,0,0,0-1.391-3.49,3.728,3.728,0,0,0-2.086-.7h-10.429Zm-33.375,25.129V-600h13.906v43.975Zm-45.2,0V-600h28.508a17.468,17.468,0,0,1,8.344,2.792,12.228,12.228,0,0,1,4.867,6.283c.886,3.235,1.552,6.06,1.391,7.678a17.174,17.174,0,0,1-.695,4.188c-.483,1.416-2,3.026-4.172,4.886s-5.413,2.944-9.039,3.49h-13.211v14.658Zm15.992-25.129h11.125c.584,0,.706.436,1.391,0a4.37,4.37,0,0,0,1.391-3.489,4.8,4.8,0,0,0-1.391-3.49,3.723,3.723,0,0,0-2.085-.7h-10.43Zm-33.375,25.129v-18.148l-9.039,18.148h-.695l-9.04-18.148v18.148h-54.929v-30.713H-718V-600h46.586v13.262H-694.36v4.886h14.6v7.678h-14.6v4.886h26.421V-600h14.6l9.04,18.148L-634.564-600h13.907v43.975Z" transform="translate(718 600)" fill="#3c83bd"/></svg>