<svg xmlns="http://www.w3.org/2000/svg" xmlns:xlink="http://www.w3.org/1999/xlink" viewBox="0 0 474 474"><defs><style>.a{fill:#fff;}.b{fill:url(#a);}.c{fill:#2c2c2c;}.d{fill:url(#b);}.e{fill:#e00;}.f{fill:none;stroke:#fff;stroke-width:0.05px;}.g{opacity:0.64;fill:url(#e);}.h{filter:url(#c);}</style><linearGradient id="a" x1="0.5" x2="0.5" y2="1" gradientUnits="objectBoundingBox"><stop offset="0" stop-color="#53afff"/><stop offset="1" stop-color="#a4d5ff"/></linearGradient><linearGradient id="b" x1="0.899" y1="0.542" x2="0" y2="0.544" gradientUnits="objectBoundingBox"><stop offset="0" stop-color="#fff"/><stop offset="0.527" stop-color="#ececec"/><stop offset="1" stop-color="#fff"/></linearGradient><filter id="c" x="287" y="231" width="17" height="17" filterUnits="userSpaceOnUse"><feOffset dx="0.5" dy="0.5" input="SourceAlpha"/><feGaussianBlur stdDeviation="0.5" result="d"/><feFlood flood-opacity="0.31"/><feComposite operator="in" in2="d"/><feComposite in="SourceGraphic"/></filter><linearGradient id="e" x1="0.5" x2="0.5" y2="1" gradientUnits="objectBoundingBox"><stop offset="0" stop-color="#0084f8"/><stop offset="1" stop-color="#002e56"/></linearGradient></defs><g transform="translate(-683 -123)"><circle class="a" cx="237" cy="237" r="237" transform="translate(683 123)"/><circle class="b" cx="197" cy="197" r="197" transform="translate(723 163)"/><ellipse class="a" cx="16.5" cy="11" rx="16.5" ry="11" transform="translate(823 218)"/><ellipse class="a" cx="16.5" cy="12.5" rx="16.5" ry="12.5" transform="translate(848 217)"/><ellipse class="a" cx="12" cy="9" rx="12" ry="9" transform="translate(866 221)"/><ellipse class="a" cx="16" cy="10" rx="16" ry="10" transform="translate(846 201)"/><ellipse class="a" cx="16" cy="12.5" rx="16" ry="12.5" transform="translate(824 205)"/><ellipse class="a" cx="19.5" cy="10" rx="19.5" ry="10" transform="translate(856 209)"/><g transform="translate(-13 1)"><path class="c" d="M854.718,370.018c-2.756.29-3.409,11.388-.653,16.611,7.326,1.233,10.3-2.1,10.3-2.1S859.8,369.075,854.718,370.018Z"/><path class="a" d="M843.846,349.231a35.548,35.548,0,0,0,10.056,16c9.4,8.039,10.231,16.119,10.231,16.119,11.533,6.761,141.916,4.351,157.406-32.117,0,0-47.587-3.833-92.01-3.833S843.846,349.231,843.846,349.231Z" transform="translate(0 4)"/><path class="d" d="M914.036,350.343s2.376-77.045,3.479-77.78c0,0,2.773,72.141,4.979,77.78Z"/><path class="a" d="M920.5,266.519s33.154,51.916,70.432,74.993c0,0-19.594-2.6-37.706-2.963s-31.347.748-31.347.748a158.138,158.138,0,0,0,3.337-32.454C925.219,288.648,920.5,266.519,920.5,266.519Z" transform="translate(0 7)"/><path class="a" d="M882.653,341.749a151.788,151.788,0,0,1,15.937-2.084,126.165,126.165,0,0,1,15.2,0,159.889,159.889,0,0,1-2.039-25.28c0-13.905,3.717-32.869,3.717-32.869Z" transform="translate(0 7)"/><g transform="translate(13 -1)"><g class="h" transform="matrix(1, 0, 0, 1, 683, 123)"><path class="a" d="M7,14a7,7,0,1,1,7-7A7.008,7.008,0,0,1,7,14ZM7,3a4,4,0,1,0,4,4A4.005,4.005,0,0,0,7,3Z" transform="translate(288 232)"/></g><path class="e" d="M7,11a4,4,0,0,0,4-4h3a7.008,7.008,0,0,1-7,7ZM0,7A7.008,7.008,0,0,1,7,0V3A4.005,4.005,0,0,0,3,7Z" transform="translate(971 355)"/></g><line class="f" x1="2" y2="16" transform="translate(915.5 272.5)"/><line class="f" x2="3" y2="1" transform="translate(917.5 272.5)"/></g><path class="g" d="M80,197.655c39.684-1.468,92.369,2.134,185.876,7.393,106,5.961,174.034-1.327,208.12-6.993C473.429,306.369,385.448,394,277,394,168.419,394,80.355,306.153,80,197.655Z" transform="translate(643 163)"/></g></svg>